<mxfile host="app.diagrams.net" agent="Mozilla/5.0 (X11; Ubuntu; Linux x86_64; rv:138.0) Gecko/20100101 Firefox/138.0" version="27.0.6">
  <diagram name="Page-1" id="7ayj2I0rk5W9dbh292fg">
    <mxGraphModel dx="1426" dy="790" grid="1" gridSize="10" guides="1" tooltips="1" connect="1" arrows="1" fold="1" page="1" pageScale="1" pageWidth="850" pageHeight="1100" math="0" shadow="0">
      <root>
        <mxCell id="0" />
        <mxCell id="1" parent="0" />
        <mxCell id="MxzqCdwi-qSanjnbXT9f-1" value="calling process" style="rounded=0;whiteSpace=wrap;html=1;fillColor=#ffe6cc;strokeColor=#d79b00;" vertex="1" parent="1">
          <mxGeometry x="40" y="280" width="120" height="90" as="geometry" />
        </mxCell>
        <mxCell id="MxzqCdwi-qSanjnbXT9f-2" value="&lt;i&gt;/bin/sh&lt;/i&gt;" style="rounded=0;whiteSpace=wrap;html=1;fillColor=#d5e8d4;strokeColor=#82b366;" vertex="1" parent="1">
          <mxGeometry x="200" y="160" width="120" height="40" as="geometry" />
        </mxCell>
        <mxCell id="MxzqCdwi-qSanjnbXT9f-3" value="&lt;i&gt;command&lt;/i&gt;" style="rounded=0;whiteSpace=wrap;html=1;fillColor=#e1d5e7;strokeColor=#9673a6;" vertex="1" parent="1">
          <mxGeometry x="360" y="280" width="120" height="90" as="geometry" />
        </mxCell>
        <mxCell id="MxzqCdwi-qSanjnbXT9f-4" value="" style="endArrow=classic;html=1;rounded=0;exitX=0.5;exitY=0;exitDx=0;exitDy=0;entryX=0;entryY=1;entryDx=0;entryDy=0;dashed=1;" edge="1" parent="1" source="MxzqCdwi-qSanjnbXT9f-1" target="MxzqCdwi-qSanjnbXT9f-2">
          <mxGeometry width="50" height="50" relative="1" as="geometry">
            <mxPoint x="440" y="440" as="sourcePoint" />
            <mxPoint x="490" y="390" as="targetPoint" />
          </mxGeometry>
        </mxCell>
        <mxCell id="MxzqCdwi-qSanjnbXT9f-5" value="" style="endArrow=classic;html=1;rounded=0;exitX=1;exitY=1;exitDx=0;exitDy=0;entryX=0.5;entryY=0;entryDx=0;entryDy=0;dashed=1;" edge="1" parent="1" source="MxzqCdwi-qSanjnbXT9f-2" target="MxzqCdwi-qSanjnbXT9f-3">
          <mxGeometry width="50" height="50" relative="1" as="geometry">
            <mxPoint x="440" y="440" as="sourcePoint" />
            <mxPoint x="490" y="390" as="targetPoint" />
          </mxGeometry>
        </mxCell>
        <mxCell id="MxzqCdwi-qSanjnbXT9f-6" value="" style="endArrow=classic;html=1;rounded=0;entryX=1;entryY=0.75;entryDx=0;entryDy=0;exitX=0;exitY=0.75;exitDx=0;exitDy=0;" edge="1" parent="1" source="MxzqCdwi-qSanjnbXT9f-3" target="MxzqCdwi-qSanjnbXT9f-1">
          <mxGeometry width="50" height="50" relative="1" as="geometry">
            <mxPoint x="440" y="440" as="sourcePoint" />
            <mxPoint x="490" y="390" as="targetPoint" />
          </mxGeometry>
        </mxCell>
        <mxCell id="MxzqCdwi-qSanjnbXT9f-7" value="&lt;i&gt;stdout&lt;/i&gt;" style="text;html=1;align=center;verticalAlign=middle;whiteSpace=wrap;rounded=0;" vertex="1" parent="1">
          <mxGeometry x="360" y="340" width="60" height="30" as="geometry" />
        </mxCell>
        <mxCell id="MxzqCdwi-qSanjnbXT9f-8" value="&lt;i&gt;fp&lt;/i&gt;" style="text;html=1;align=center;verticalAlign=middle;whiteSpace=wrap;rounded=0;" vertex="1" parent="1">
          <mxGeometry x="100" y="340" width="60" height="30" as="geometry" />
        </mxCell>
        <mxCell id="MxzqCdwi-qSanjnbXT9f-9" value="&lt;i&gt;fork(),&lt;br&gt;exec()&lt;/i&gt;" style="text;html=1;align=center;verticalAlign=middle;whiteSpace=wrap;rounded=0;rotation=-39;" vertex="1" parent="1">
          <mxGeometry x="86.97" y="201.47" width="70" height="43.15" as="geometry" />
        </mxCell>
        <mxCell id="MxzqCdwi-qSanjnbXT9f-10" value="&lt;i&gt;fork(),&lt;br&gt;exec()&lt;/i&gt;" style="text;html=1;align=center;verticalAlign=middle;whiteSpace=wrap;rounded=0;rotation=40;" vertex="1" parent="1">
          <mxGeometry x="349.9976960878942" y="189.99813780517846" width="70" height="43.15" as="geometry" />
        </mxCell>
        <mxCell id="MxzqCdwi-qSanjnbXT9f-11" value="pipe" style="text;html=1;align=center;verticalAlign=middle;whiteSpace=wrap;rounded=0;" vertex="1" parent="1">
          <mxGeometry x="240" y="310" width="60" height="30" as="geometry" />
        </mxCell>
        <mxCell id="MxzqCdwi-qSanjnbXT9f-12" value="calling process" style="rounded=0;whiteSpace=wrap;html=1;fillColor=#ffe6cc;strokeColor=#d79b00;" vertex="1" parent="1">
          <mxGeometry x="640" y="280" width="120" height="90" as="geometry" />
        </mxCell>
        <mxCell id="MxzqCdwi-qSanjnbXT9f-13" value="&lt;i&gt;/bin/sh&lt;/i&gt;" style="rounded=0;whiteSpace=wrap;html=1;fillColor=#d5e8d4;strokeColor=#82b366;" vertex="1" parent="1">
          <mxGeometry x="800" y="160" width="120" height="40" as="geometry" />
        </mxCell>
        <mxCell id="MxzqCdwi-qSanjnbXT9f-14" value="&lt;i&gt;command&lt;/i&gt;" style="rounded=0;whiteSpace=wrap;html=1;fillColor=#e1d5e7;strokeColor=#9673a6;" vertex="1" parent="1">
          <mxGeometry x="960" y="280" width="120" height="90" as="geometry" />
        </mxCell>
        <mxCell id="MxzqCdwi-qSanjnbXT9f-15" value="" style="endArrow=classic;html=1;rounded=0;exitX=0.5;exitY=0;exitDx=0;exitDy=0;entryX=0;entryY=1;entryDx=0;entryDy=0;dashed=1;" edge="1" parent="1" source="MxzqCdwi-qSanjnbXT9f-12" target="MxzqCdwi-qSanjnbXT9f-13">
          <mxGeometry width="50" height="50" relative="1" as="geometry">
            <mxPoint x="1040" y="440" as="sourcePoint" />
            <mxPoint x="1090" y="390" as="targetPoint" />
          </mxGeometry>
        </mxCell>
        <mxCell id="MxzqCdwi-qSanjnbXT9f-16" value="" style="endArrow=classic;html=1;rounded=0;exitX=1;exitY=1;exitDx=0;exitDy=0;entryX=0.5;entryY=0;entryDx=0;entryDy=0;dashed=1;" edge="1" parent="1" source="MxzqCdwi-qSanjnbXT9f-13" target="MxzqCdwi-qSanjnbXT9f-14">
          <mxGeometry width="50" height="50" relative="1" as="geometry">
            <mxPoint x="1040" y="440" as="sourcePoint" />
            <mxPoint x="1090" y="390" as="targetPoint" />
          </mxGeometry>
        </mxCell>
        <mxCell id="MxzqCdwi-qSanjnbXT9f-18" value="&lt;i&gt;stdout&lt;/i&gt;" style="text;html=1;align=center;verticalAlign=middle;whiteSpace=wrap;rounded=0;" vertex="1" parent="1">
          <mxGeometry x="960" y="340" width="60" height="30" as="geometry" />
        </mxCell>
        <mxCell id="MxzqCdwi-qSanjnbXT9f-19" value="&lt;i&gt;fp&lt;/i&gt;" style="text;html=1;align=center;verticalAlign=middle;whiteSpace=wrap;rounded=0;" vertex="1" parent="1">
          <mxGeometry x="700" y="340" width="60" height="30" as="geometry" />
        </mxCell>
        <mxCell id="MxzqCdwi-qSanjnbXT9f-20" value="&lt;i&gt;fork(),&lt;br&gt;exec()&lt;/i&gt;" style="text;html=1;align=center;verticalAlign=middle;whiteSpace=wrap;rounded=0;rotation=-39;" vertex="1" parent="1">
          <mxGeometry x="686.97" y="201.47000000000003" width="70" height="43.15" as="geometry" />
        </mxCell>
        <mxCell id="MxzqCdwi-qSanjnbXT9f-21" value="&lt;i&gt;fork(),&lt;br&gt;exec()&lt;/i&gt;" style="text;html=1;align=center;verticalAlign=middle;whiteSpace=wrap;rounded=0;rotation=40;" vertex="1" parent="1">
          <mxGeometry x="949.9976960878942" y="189.99813780517843" width="70" height="43.15" as="geometry" />
        </mxCell>
        <mxCell id="MxzqCdwi-qSanjnbXT9f-22" value="pipe" style="text;html=1;align=center;verticalAlign=middle;whiteSpace=wrap;rounded=0;" vertex="1" parent="1">
          <mxGeometry x="840" y="320" width="60" height="30" as="geometry" />
        </mxCell>
        <mxCell id="MxzqCdwi-qSanjnbXT9f-23" value="" style="endArrow=classic;html=1;rounded=0;entryX=0;entryY=0.5;entryDx=0;entryDy=0;exitX=1;exitY=0.5;exitDx=0;exitDy=0;" edge="1" parent="1" source="MxzqCdwi-qSanjnbXT9f-19" target="MxzqCdwi-qSanjnbXT9f-18">
          <mxGeometry width="50" height="50" relative="1" as="geometry">
            <mxPoint x="600" y="440" as="sourcePoint" />
            <mxPoint x="650" y="390" as="targetPoint" />
          </mxGeometry>
        </mxCell>
      </root>
    </mxGraphModel>
  </diagram>
</mxfile>
